<?xml version="1.0" encoding="utf-8"?>
<!-- Generator: Adobe Illustrator 24.0.0, SVG Export Plug-In . SVG Version: 6.00 Build 0)  -->
<svg version="1.1" id="Layer_1" xmlns="http://www.w3.org/2000/svg" xmlns:xlink="http://www.w3.org/1999/xlink" x="0px" y="0px"
	 viewBox="0 0 732 122.3" style="enable-background:new 0 0 732 122.3;" xml:space="preserve">
<style type="text/css">
	.st0{fill:#658220;}
	.st1{fill:#515151;}
</style>
<g>
	<g>
		<path class="st0" d="M162.6,0.9L183,52l20.5-51.1h10.7v62.6H206V39.1l0.8-26.3l-20.6,50.7h-6.3l-20.5-50.6l0.8,26.2v24.4h-8.3V0.9
			H162.6z"/>
		<path class="st0" d="M243.2,32.3l16.3-31.4h9.4l-21.6,39.3v23.4h-8.3V40.1L217.5,0.9h9.5L243.2,32.3z"/>
		<path class="st0" d="M290.1,40.1h-21v-6.5h21V40.1z"/>
		<path class="st0" d="M345.1,43.6c-0.8,6.6-3.2,11.7-7.3,15.3c-4.1,3.6-9.6,5.4-16.4,5.4c-7.4,0-13.3-2.7-17.8-8
			s-6.7-12.4-6.7-21.3v-6c0-5.8,1-10.9,3.1-15.4c2.1-4.4,5-7.8,8.8-10.2c3.8-2.4,8.2-3.5,13.2-3.5c6.7,0,12,1.9,16,5.6
			c4,3.7,6.4,8.9,7,15.4h-8.3c-0.7-5-2.3-8.6-4.7-10.9s-5.7-3.4-10-3.4c-5.3,0-9.4,2-12.4,5.9c-3,3.9-4.5,9.5-4.5,16.7v6.1
			c0,6.8,1.4,12.2,4.3,16.2c2.8,4,6.8,6,11.9,6c4.6,0,8.1-1,10.6-3.1s4.1-5.7,4.9-10.9H345.1z"/>
		<path class="st0" d="M404.6,34.2c0,6.1-1,11.5-3.1,16.1c-2.1,4.6-5,8.1-8.8,10.5c-3.8,2.4-8.2,3.6-13.2,3.6
			c-4.9,0-9.3-1.2-13.1-3.6c-3.8-2.4-6.8-5.9-8.9-10.4c-2.1-4.5-3.2-9.7-3.2-15.6v-4.5c0-6,1-11.3,3.1-16c2.1-4.6,5.1-8.2,8.9-10.6
			C370,1.2,374.4,0,379.4,0c5,0,9.4,1.2,13.3,3.6c3.8,2.4,6.8,5.9,8.8,10.5c2.1,4.6,3.1,10,3.1,16.1V34.2z M396.3,30.2
			c0-7.4-1.5-13.1-4.5-17.1c-3-4-7.2-6-12.5-6c-5.2,0-9.3,2-12.3,6c-3,4-4.5,9.5-4.6,16.5v4.6c0,7.2,1.5,12.9,4.5,17
			c3,4.1,7.2,6.2,12.5,6.2c5.3,0,9.5-1.9,12.4-5.8c2.9-3.9,4.4-9.5,4.5-16.7V30.2z"/>
		<path class="st0" d="M447.1,47.1h-26.2L415,63.5h-8.5l23.9-62.6h7.2l24,62.6h-8.5L447.1,47.1z M423.4,40.3h21.3L434,11.1
			L423.4,40.3z"/>
		<path class="st0" d="M509.8,0.9v42.6c0,5.9-1.9,10.7-5.6,14.5c-3.7,3.8-8.7,5.9-15,6.3l-2.2,0.1c-6.9,0-12.3-1.9-16.4-5.5
			c-4.1-3.7-6.1-8.8-6.2-15.3V0.9h8.2v42.4c0,4.5,1.2,8.1,3.7,10.6c2.5,2.5,6,3.8,10.7,3.8c4.7,0,8.3-1.2,10.7-3.7s3.7-6,3.7-10.5
			V0.9H509.8z"/>
		<path class="st0" d="M562.6,7.6h-20.1v55.9h-8.2V7.6h-20.1V0.9h48.4V7.6z"/>
		<path class="st0" d="M616.5,63.5h-8.3V34.5h-31.6v28.9h-8.3V0.9h8.3v26.9h31.6V0.9h8.3V63.5z"/>
		<path class="st0" d="M675.8,34.2c0,6.1-1,11.5-3.1,16.1c-2.1,4.6-5,8.1-8.8,10.5c-3.8,2.4-8.2,3.6-13.2,3.6
			c-4.9,0-9.3-1.2-13.1-3.6c-3.8-2.4-6.8-5.9-8.9-10.4c-2.1-4.5-3.2-9.7-3.2-15.6v-4.5c0-6,1-11.3,3.1-16c2.1-4.6,5.1-8.2,8.9-10.6
			c3.8-2.5,8.2-3.7,13.1-3.7c5,0,9.4,1.2,13.3,3.6c3.8,2.4,6.8,5.9,8.8,10.5c2.1,4.6,3.1,10,3.1,16.1V34.2z M667.6,30.2
			c0-7.4-1.5-13.1-4.5-17.1c-3-4-7.2-6-12.5-6c-5.2,0-9.3,2-12.3,6c-3,4-4.5,9.5-4.6,16.5v4.6c0,7.2,1.5,12.9,4.5,17
			c3,4.1,7.2,6.2,12.5,6.2c5.3,0,9.5-1.9,12.4-5.8c2.9-3.9,4.4-9.5,4.5-16.7V30.2z"/>
		<path class="st0" d="M707.6,38.2h-14.7v25.3h-8.3V0.9h20.7c7.1,0,12.5,1.6,16.3,4.8c3.8,3.2,5.7,7.9,5.7,14
			c0,3.9-1.1,7.3-3.2,10.2c-2.1,2.9-5,5.1-8.8,6.5L730.1,63v0.5h-8.9L707.6,38.2z M692.9,31.4h12.7c4.1,0,7.4-1.1,9.8-3.2
			c2.4-2.1,3.6-5,3.6-8.5c0-3.9-1.2-6.8-3.5-8.9c-2.3-2.1-5.6-3.1-10-3.1h-12.6V31.4z"/>
	</g>
	<g>
		<g>
			<path class="st1" d="M156.6,111H170v3h-17.1V85.8h3.7V111z"/>
			<path class="st1" d="M190.9,114.4c-2.8,0-5.2-0.9-6.9-2.8c-1.8-1.9-2.7-4.4-2.7-7.5v-0.7c0-2.1,0.4-3.9,1.2-5.6
				c0.8-1.6,1.9-2.9,3.3-3.8c1.4-0.9,3-1.4,4.6-1.4c2.7,0,4.8,0.9,6.4,2.7c1.5,1.8,2.3,4.4,2.3,7.7v1.5h-14.2c0.1,2.1,0.7,3.7,1.8,5
				c1.2,1.3,2.6,1.9,4.4,1.9c1.3,0,2.3-0.3,3.2-0.8c0.9-0.5,1.6-1.2,2.3-2.1l2.2,1.7C197,113.1,194.4,114.4,190.9,114.4z
				 M190.4,95.6c-1.4,0-2.7,0.5-3.6,1.6c-1,1.1-1.6,2.5-1.8,4.4h10.5v-0.3c-0.1-1.8-0.6-3.2-1.5-4.2
				C193.1,96.1,191.9,95.6,190.4,95.6z"/>
			<path class="st1" d="M216.5,88v5.1h3.9v2.8h-3.9v13c0,0.8,0.2,1.5,0.5,1.9c0.3,0.4,0.9,0.6,1.8,0.6c0.4,0,1-0.1,1.7-0.2v2.9
				c-0.9,0.3-1.9,0.4-2.8,0.4c-1.6,0-2.8-0.5-3.6-1.5c-0.8-1-1.2-2.3-1.2-4.1v-13h-3.8v-2.8h3.8V88H216.5z"/>
			<path class="st1" d="M233.4,93.8l-2-1.4c1.2-1.7,1.8-3.4,1.9-5.3v-2.8h3.5v2.5c0,1.3-0.3,2.6-1,3.9
				C235.2,91.9,234.4,93,233.4,93.8z"/>
			<path class="st1" d="M259.6,108.5c0-1-0.4-1.7-1.1-2.3c-0.7-0.5-2-1-3.8-1.4c-1.8-0.4-3.3-0.9-4.3-1.4c-1.1-0.5-1.9-1.2-2.4-1.9
				c-0.5-0.7-0.8-1.6-0.8-2.7c0-1.7,0.7-3.2,2.2-4.4c1.5-1.2,3.3-1.8,5.6-1.8c2.4,0,4.3,0.6,5.8,1.8c1.5,1.2,2.2,2.8,2.2,4.7h-3.6
				c0-1-0.4-1.8-1.3-2.5c-0.8-0.7-1.9-1.1-3.1-1.1c-1.3,0-2.3,0.3-3.1,0.9c-0.7,0.6-1.1,1.3-1.1,2.2c0,0.9,0.3,1.5,1,2
				c0.7,0.4,1.9,0.9,3.7,1.3c1.8,0.4,3.2,0.9,4.3,1.4c1.1,0.6,1.9,1.2,2.5,2c0.5,0.8,0.8,1.7,0.8,2.9c0,1.9-0.7,3.4-2.2,4.5
				s-3.4,1.7-5.8,1.7c-1.7,0-3.2-0.3-4.5-0.9c-1.3-0.6-2.3-1.4-3-2.5c-0.7-1.1-1.1-2.2-1.1-3.5h3.6c0.1,1.2,0.5,2.2,1.4,2.9
				c0.9,0.7,2.1,1.1,3.6,1.1c1.4,0,2.4-0.3,3.3-0.8C259.2,110.1,259.6,109.4,259.6,108.5z"/>
			<path class="st1" d="M311.2,101h-12.2v10h14.2v3h-17.9V85.8h17.7v3h-14V98h12.2V101z"/>
			<path class="st1" d="M332.7,100.7l4.7-7.7h4.2l-6.9,10.4l7.1,10.6h-4.1l-4.8-7.8l-4.8,7.8h-4.2l7.1-10.6L324,93.1h4.1
				L332.7,100.7z"/>
			<path class="st1" d="M371.6,103.8c0,3.2-0.7,5.8-2.2,7.7c-1.5,2-3.4,2.9-5.9,2.9c-2.5,0-4.5-0.8-6-2.4v10.1h-3.6v-29h3.3l0.2,2.3
				c1.5-1.8,3.5-2.7,6.1-2.7c2.5,0,4.5,0.9,6,2.8c1.5,1.9,2.2,4.5,2.2,7.9V103.8z M368,103.4c0-2.4-0.5-4.2-1.5-5.6
				c-1-1.4-2.4-2.1-4.1-2.1c-2.2,0-3.8,1-4.9,2.9v10c1.1,1.9,2.7,2.9,4.9,2.9c1.7,0,3.1-0.7,4.1-2C367.5,108.1,368,106.1,368,103.4z
				"/>
			<path class="st1" d="M388.5,114h-3.6V84.3h3.6V114z"/>
			<path class="st1" d="M401.8,103.4c0-2.1,0.4-3.9,1.2-5.5c0.8-1.6,1.9-2.9,3.4-3.8c1.4-0.9,3.1-1.3,4.9-1.3c2.9,0,5.2,1,6.9,3
				c1.8,2,2.6,4.6,2.6,7.9v0.3c0,2-0.4,3.9-1.2,5.5c-0.8,1.6-1.9,2.9-3.4,3.8c-1.5,0.9-3.1,1.4-5,1.4c-2.8,0-5.1-1-6.9-3
				c-1.8-2-2.6-4.6-2.6-7.8V103.4z M405.4,103.8c0,2.3,0.5,4.2,1.6,5.6c1.1,1.4,2.5,2.1,4.3,2.1c1.8,0,3.3-0.7,4.3-2.1
				c1.1-1.4,1.6-3.4,1.6-6c0-2.3-0.5-4.2-1.6-5.6c-1.1-1.4-2.5-2.1-4.4-2.1c-1.8,0-3.2,0.7-4.3,2.1
				C405.9,99.2,405.4,101.2,405.4,103.8z"/>
			<path class="st1" d="M444,96.3c-0.5-0.1-1.1-0.1-1.8-0.1c-2.4,0-3.9,1-4.8,3V114h-3.6v-21h3.5l0.1,2.4c1.2-1.9,2.8-2.8,5-2.8
				c0.7,0,1.2,0.1,1.6,0.3V96.3z"/>
			<path class="st1" d="M464.1,114.4c-2.8,0-5.2-0.9-6.9-2.8c-1.8-1.9-2.7-4.4-2.7-7.5v-0.7c0-2.1,0.4-3.9,1.2-5.6
				c0.8-1.6,1.9-2.9,3.3-3.8c1.4-0.9,3-1.4,4.6-1.4c2.7,0,4.8,0.9,6.4,2.7s2.3,4.4,2.3,7.7v1.5h-14.2c0.1,2.1,0.7,3.7,1.8,5
				c1.2,1.3,2.6,1.9,4.4,1.9c1.3,0,2.3-0.3,3.2-0.8c0.9-0.5,1.6-1.2,2.3-2.1l2.2,1.7C470.3,113.1,467.6,114.4,464.1,114.4z
				 M463.7,95.6c-1.4,0-2.7,0.5-3.6,1.6c-1,1.1-1.6,2.5-1.8,4.4h10.5v-0.3c-0.1-1.8-0.6-3.2-1.5-4.2
				C466.4,96.1,465.2,95.6,463.7,95.6z"/>
			<path class="st1" d="M522.5,88.9h-9.1V114h-3.7V88.9h-9v-3h21.8V88.9z"/>
			<path class="st1" d="M531.8,103.4c0-2.1,0.4-3.9,1.2-5.5c0.8-1.6,1.9-2.9,3.4-3.8c1.4-0.9,3.1-1.3,4.9-1.3c2.9,0,5.2,1,6.9,3
				c1.8,2,2.6,4.6,2.6,7.9v0.3c0,2-0.4,3.9-1.2,5.5c-0.8,1.6-1.9,2.9-3.4,3.8c-1.5,0.9-3.1,1.4-5,1.4c-2.8,0-5.1-1-6.9-3
				c-1.8-2-2.6-4.6-2.6-7.8V103.4z M535.4,103.8c0,2.3,0.5,4.2,1.6,5.6c1.1,1.4,2.5,2.1,4.3,2.1c1.8,0,3.3-0.7,4.3-2.1
				c1.1-1.4,1.6-3.4,1.6-6c0-2.3-0.5-4.2-1.6-5.6c-1.1-1.4-2.5-2.1-4.4-2.1c-1.8,0-3.2,0.7-4.3,2.1
				C535.9,99.2,535.4,101.2,535.4,103.8z"/>
			<path class="st1" d="M563,103.4c0-3.3,0.8-5.9,2.3-7.8c1.5-1.9,3.5-2.9,6-2.9c2.6,0,4.6,0.9,6,2.7l0.2-2.3h3.3v20.5
				c0,2.7-0.8,4.9-2.4,6.4c-1.6,1.6-3.8,2.3-6.5,2.3c-1.5,0-3-0.3-4.4-1s-2.6-1.5-3.3-2.7l1.9-2.2c1.5,1.9,3.4,2.8,5.6,2.8
				c1.7,0,3.1-0.5,4.1-1.5c1-1,1.5-2.4,1.5-4.1v-1.8c-1.4,1.7-3.4,2.5-5.9,2.5c-2.5,0-4.4-1-6-3C563.8,109.5,563,106.8,563,103.4z
				 M566.6,103.8c0,2.4,0.5,4.2,1.5,5.6c1,1.4,2.3,2,4.1,2c2.3,0,3.9-1,5-3.1v-9.6c-1.1-2-2.7-3-4.9-3c-1.7,0-3.1,0.7-4.1,2
				C567.1,99.1,566.6,101.1,566.6,103.8z"/>
			<path class="st1" d="M603.3,114.4c-2.8,0-5.2-0.9-6.9-2.8c-1.8-1.9-2.7-4.4-2.7-7.5v-0.7c0-2.1,0.4-3.9,1.2-5.6
				c0.8-1.6,1.9-2.9,3.3-3.8c1.4-0.9,3-1.4,4.6-1.4c2.7,0,4.8,0.9,6.4,2.7c1.5,1.8,2.3,4.4,2.3,7.7v1.5h-14.2c0.1,2.1,0.7,3.7,1.8,5
				c1.2,1.3,2.6,1.9,4.4,1.9c1.3,0,2.3-0.3,3.2-0.8c0.9-0.5,1.6-1.2,2.3-2.1l2.2,1.7C609.5,113.1,606.8,114.4,603.3,114.4z
				 M602.9,95.6c-1.4,0-2.7,0.5-3.6,1.6c-1,1.1-1.6,2.5-1.8,4.4h10.5v-0.3c-0.1-1.8-0.6-3.2-1.5-4.2
				C605.6,96.1,604.4,95.6,602.9,95.6z"/>
			<path class="st1" d="M629,88v5.1h3.9v2.8H629v13c0,0.8,0.2,1.5,0.5,1.9c0.3,0.4,0.9,0.6,1.8,0.6c0.4,0,1-0.1,1.7-0.2v2.9
				c-0.9,0.3-1.9,0.4-2.8,0.4c-1.6,0-2.8-0.5-3.6-1.5c-0.8-1-1.2-2.3-1.2-4.1v-13h-3.8v-2.8h3.8V88H629z"/>
			<path class="st1" d="M649.2,95.6c1.6-2,3.7-2.9,6.2-2.9c4.4,0,6.7,2.5,6.7,7.5V114h-3.6v-13.9c0-1.5-0.4-2.6-1-3.4
				c-0.7-0.7-1.7-1.1-3.2-1.1c-1.2,0-2.2,0.3-3.1,0.9c-0.9,0.6-1.6,1.4-2.1,2.4V114h-3.6V84.3h3.6V95.6z"/>
			<path class="st1" d="M684.6,114.4c-2.8,0-5.2-0.9-6.9-2.8c-1.8-1.9-2.7-4.4-2.7-7.5v-0.7c0-2.1,0.4-3.9,1.2-5.6
				c0.8-1.6,1.9-2.9,3.3-3.8c1.4-0.9,3-1.4,4.6-1.4c2.7,0,4.8,0.9,6.4,2.7c1.5,1.8,2.3,4.4,2.3,7.7v1.5h-14.2c0.1,2.1,0.7,3.7,1.8,5
				c1.2,1.3,2.6,1.9,4.4,1.9c1.3,0,2.3-0.3,3.2-0.8c0.9-0.5,1.6-1.2,2.3-2.1l2.2,1.7C690.8,113.1,688.1,114.4,684.6,114.4z
				 M684.2,95.6c-1.4,0-2.7,0.5-3.6,1.6c-1,1.1-1.6,2.5-1.8,4.4h10.5v-0.3c-0.1-1.8-0.6-3.2-1.5-4.2
				C686.9,96.1,685.7,95.6,684.2,95.6z"/>
			<path class="st1" d="M715.6,96.3c-0.5-0.1-1.1-0.1-1.8-0.1c-2.4,0-3.9,1-4.8,3V114h-3.6v-21h3.5l0.1,2.4c1.2-1.9,2.8-2.8,5-2.8
				c0.7,0,1.2,0.1,1.6,0.3V96.3z"/>
			<path class="st1" d="M727.8,112.2c0-0.6,0.2-1.1,0.5-1.5c0.4-0.4,0.9-0.6,1.6-0.6s1.2,0.2,1.6,0.6c0.4,0.4,0.5,0.9,0.5,1.5
				s-0.2,1.1-0.5,1.5c-0.4,0.4-0.9,0.6-1.6,0.6s-1.2-0.2-1.6-0.6S727.8,112.8,727.8,112.2z M731.4,106h-3.2l-0.3-20.2h3.8L731.4,106
				z"/>
		</g>
	</g>
	<g>
		<polygon class="st0" points="116.7,87.2 116.7,96.2 75.3,64.8 81.2,60.3 		"/>
		<path class="st0" d="M28.5,100.2l-1,0.7v-1.5C27.9,99.7,28.2,100,28.5,100.2z"/>
		<polygon class="st0" points="65.4,60.3 71.4,64.8 29.9,96.2 29.9,87.2 		"/>
		<polygon class="st0" points="73.3,54.3 29.9,21.5 29.9,84.2 37.1,78.8 37.1,35.8 73.3,63.3 109.6,35.8 109.6,78.8 116.7,84.2 
			116.7,21.5 		"/>
		<path class="st0" d="M116.8,8H58C29.9,8,7.2,30.8,7.2,58.8c0,16.6,8,31.4,20.4,40.7c0.3,0.2,0.6,0.5,1,0.7
			c8.3,5.9,18.5,9.4,29.4,9.4h11.8V69l3.6-2.7l3.6,2.7v47.8H58c-15.5,0-30-6-41-17C6,88.8,0,74.3,0,58.8s6-30,17-41
			c10.9-11,25.5-17,41-17h58.8V8z"/>
	</g>
</g>
</svg>
